<svg xmlns="http://www.w3.org/2000/svg" viewBox="0 0 800 340" width="800" height="340" role="img" aria-label="">
  <defs>
    <linearGradient id="g" x1="0" y1="0" x2="1" y2="1">
      <stop offset="0%" stop-color="#0f766e"/>
      <stop offset="100%" stop-color="#0891b2"/>
    </linearGradient>
  </defs>
  <rect width="800" height="340" fill="url(#g)"/>
  <circle cx="690" cy="60" r="150" fill="#ffffff" opacity="0.10"/>
  <circle cx="90" cy="310" r="120" fill="#ffffff" opacity="0.08"/>
  <!-- Motifs are held inside a centre band so they survive both the card crop
       and the shorter banner crop. -->
  <g transform="translate(133, 47) scale(0.667)">
  <rect x="110" y="96" width="160" height="9" rx="4.5" fill="#ffffff" opacity="0.9"/>
  <rect x="110" y="122" width="160" height="9" rx="4.5" fill="#ffffff" opacity="0.81"/>
  <rect x="110" y="148" width="160" height="9" rx="4.5" fill="#ffffff" opacity="0.72"/>
  <rect x="110" y="174" width="160" height="9" rx="4.5" fill="#ffffff" opacity="0.63"/>
  <rect x="110" y="200" width="160" height="9" rx="4.5" fill="#ffffff" opacity="0.54"/>
  <rect x="110" y="226" width="96" height="9" rx="4.5" fill="#ffffff" opacity="0.45000000000000007"/>
  <rect x="320" y="96" width="160" height="9" rx="4.5" fill="#ffffff" opacity="0.9"/>
  <rect x="320" y="122" width="160" height="9" rx="4.5" fill="#ffffff" opacity="0.81"/>
  <rect x="320" y="148" width="160" height="9" rx="4.5" fill="#ffffff" opacity="0.72"/>
  <rect x="320" y="174" width="160" height="9" rx="4.5" fill="#ffffff" opacity="0.63"/>
  <rect x="320" y="200" width="160" height="9" rx="4.5" fill="#ffffff" opacity="0.54"/>
  <rect x="320" y="226" width="96" height="9" rx="4.5" fill="#ffffff" opacity="0.45000000000000007"/>
  </g>
</svg>
